<?xml version="1.0" encoding="UTF-8"?>
<svg id="_レイヤー_2" data-name="レイヤー 2" xmlns="http://www.w3.org/2000/svg" width="653.89" height="118.4" viewBox="0 0 653.89 118.4">
  <defs>
    <style>
      .cls-1 {
        fill: #e3d711;
      }

      .cls-2 {
        fill: #fcee21;
      }

      .cls-3 {
        fill: #fff;
      }
    </style>
  </defs>
  <g id="_レイヤー_1-2" data-name="レイヤー 1">
    <g>
      <g>
        <path class="cls-2" d="M138.82,8.18h72.19v22.52c0,12.42-10.09,22.51-22.51,22.51h-49.68V8.18h0Z"/>
        <path class="cls-2" d="M72.19,8.18H22.51C10.08,8.18,0,18.25,0,30.69v22.52h21.61L72.19,8.18Z"/>
        <path class="cls-1" d="M138.82,53.21l-73.22,65.19v-34.94c0-6.42,2.74-12.54,7.54-16.81L138.82,8.18v45.03Z"/>
      </g>
      <g>
        <path class="cls-3" d="M305.79,21.51h-18.56v86.47h-16.06V21.51h-18.56V7.51h53.18v13.99Z"/>
        <path class="cls-3" d="M312.13,44.78c0-7.66,2.21-13.5,6.63-17.53s10.85-6.04,19.3-6.04,14.88,2.01,19.3,6.04c4.42,4.03,6.63,9.87,6.63,17.53v63.2h-15.32v-8.25c-2.26,6.09-7.56,9.13-15.91,9.13-6.87,0-12.15-1.77-15.84-5.3-3.68-3.54-5.52-8.59-5.52-15.17v-4.42c0-5.21,1.42-9.45,4.27-12.74,2.85-3.29,7.17-5.97,12.96-8.03l19.74-6.92v-11.64c0-3.24-.81-5.62-2.43-7.14-1.62-1.52-4.25-2.28-7.88-2.28s-6.26.76-7.88,2.28c-1.62,1.52-2.43,3.9-2.43,7.14v5.6h-15.61v-5.45ZM327.01,87.06c0,5.99,3.34,8.99,10.02,8.99,7.56,0,11.34-3.34,11.34-10.02v-16.35l-12.67,4.42c-3.24.98-5.5,2.23-6.78,3.76-1.28,1.52-1.92,3.66-1.92,6.41v2.8Z"/>
        <path class="cls-3" d="M413.92,63.49c9.04,4.22,13.55,10.66,13.55,19.3v3.54c0,7.56-2.21,13.31-6.63,17.24-4.42,3.93-10.8,5.89-19.15,5.89s-14.58-1.96-19-5.89c-4.42-3.93-6.63-9.72-6.63-17.38v-4.71h15.47v5.01c0,6.19,3.39,9.28,10.16,9.28s10.46-3.04,10.46-9.13v-2.65c0-3.93-2.26-6.97-6.78-9.13l-15.61-7.66c-8.64-4.42-12.96-11.05-12.96-19.89v-2.8c0-7.56,2.11-13.33,6.33-17.31,4.22-3.98,10.46-5.97,18.71-5.97s14.49,1.99,18.71,5.97c4.22,3.98,6.33,9.75,6.33,17.31v3.98h-15.32v-4.27c0-3.24-.74-5.65-2.21-7.22-1.47-1.57-3.98-2.36-7.51-2.36s-6.04.76-7.51,2.28c-1.47,1.52-2.21,3.9-2.21,7.14v2.21c0,4.32,2.21,7.46,6.63,9.43l15.17,7.81Z"/>
        <path class="cls-3" d="M475.05,85.14v-7.22h15.62v7.22c0,7.66-2.26,13.63-6.78,17.9-4.52,4.27-10.9,6.41-19.15,6.41s-14.49-2.14-19-6.41c-4.52-4.27-6.78-10.24-6.78-17.9v-39.63c0-7.66,2.26-13.63,6.78-17.9,4.52-4.27,10.85-6.41,19-6.41s14.63,2.14,19.15,6.41c4.52,4.27,6.78,10.24,6.78,17.9v7.51h-15.62v-7.51c0-6.78-3.44-10.16-10.31-10.16s-10.31,3.39-10.31,10.16v39.63c0,6.78,3.44,10.16,10.31,10.16s10.31-3.39,10.31-10.16Z"/>
        <path class="cls-3" d="M502.16,44.78c0-7.66,2.21-13.5,6.63-17.53s10.85-6.04,19.3-6.04,14.88,2.01,19.3,6.04,6.63,9.87,6.63,17.53v63.2h-15.32v-8.25c-2.26,6.09-7.56,9.13-15.91,9.13-6.87,0-12.15-1.77-15.84-5.3-3.68-3.54-5.52-8.59-5.52-15.17v-4.42c0-5.21,1.42-9.45,4.27-12.74,2.85-3.29,7.17-5.97,12.96-8.03l19.74-6.92v-11.64c0-3.24-.81-5.62-2.43-7.14-1.62-1.52-4.25-2.28-7.88-2.28s-6.26.76-7.88,2.28c-1.62,1.52-2.43,3.9-2.43,7.14v5.6h-15.62v-5.45ZM517.04,87.06c0,5.99,3.34,8.99,10.02,8.99,7.56,0,11.34-3.34,11.34-10.02v-16.35l-12.67,4.42c-3.24.98-5.5,2.23-6.78,3.76-1.28,1.52-1.92,3.66-1.92,6.41v2.8Z"/>
        <path class="cls-3" d="M570.36,0h15.61v107.98h-15.61V0Z"/>
        <path class="cls-3" d="M616.91,69.82v15.62c0,6.68,3.58,10.02,10.75,10.02s10.75-3.34,10.75-10.02v-6.04h15.47v5.75c0,7.66-2.31,13.63-6.92,17.9-4.62,4.27-11.05,6.41-19.3,6.41s-14.66-2.14-19.22-6.41c-4.57-4.27-6.85-10.24-6.85-17.9v-39.63c0-7.66,2.28-13.63,6.85-17.9,4.57-4.27,10.97-6.41,19.22-6.41s14.68,2.16,19.3,6.48c4.62,4.32,6.92,10.26,6.92,17.82v24.16h-.59v.15h-36.39ZM638.57,45.22c0-6.68-3.63-10.02-10.9-10.02s-10.75,3.34-10.75,10.02v12.08h21.65v-12.08Z"/>
      </g>
    </g>
  </g>
</svg>